# xmcd
# Track frame offsets:
# 150
# 9863
# 20648
# 28959
# 36576
# 47430
# 56309
# 67877
# 77939
# 90111
# 98155
# 110665
# 122265
# 132014
# 142179
# 154091
# 162144
# 172767
# 183807
# 193860
# 206046
# 217969
# 225818
# 237632
#
# Disc length: 3319 seconds
# Revision: 2
# Processed by: cddbd v1.5.2PL0 Copyright (c) Steve Scherf et al.
# Submitted via: VisiTrax 2.11.3.279 - For more info visit www.synapsa.com
#
DISCID=320cf518
DTITLE=Johnny Cash - Johnny Cash With His Hot And Blue Guitar and Sings The Son
DTITLE=gs That Made Him Famous
DYEAR=1957
DGENRE=
TTITLE0=Rock Island Line
TTITLE1=I Heard That Lonesome Whistle Blow
TTITLE2=Country Boy
TTITLE3=If The Good Lord's Willing
TTITLE4=Cry, Cry, Cry
TTITLE5=Remember Me (I'm The One Who Loves You)
TTITLE6=So Doggone Lonesome
TTITLE7=I Was There When It Happened
TTITLE8=I Walk The Line
TTITLE9=The Wreck Of The Old '97
TTITLE10=Folsom Prison Blues
TTITLE11=Doin' My Time
TTITLE12=Ballad Of A Teenage Queen
TTITLE13=There You Go
TTITLE14=I Walk The Line [Alternate Version]
TTITLE15=Guess Things Happen That Way
TTITLE16=Train Of Love
TTITLE17=Don't Make Me Go
TTITLE18=The Ways Of A Woman In Love
TTITLE19=Next In Line
TTITLE20=You're The Nearest Thing To Heaven
TTITLE21=I Can't Help It (If I'm Still In Love With You)
TTITLE22=Home Of The Blues
TTITLE23=Big River
EXTD=SNAP 276 CD
EXTT0=
EXTT1=
EXTT2=
EXTT3=
EXTT4=
EXTT5=
EXTT6=
EXTT7=
EXTT8=
EXTT9=
EXTT10=
EXTT11=
EXTT12=
EXTT13=
EXTT14=
EXTT15=
EXTT16=
EXTT17=
EXTT18=
EXTT19=
EXTT20=
EXTT21=
EXTT22=
EXTT23=
PLAYORDER=
